<?xml version="1.0" encoding="UTF-8" standalone="no"?>
<!-- Created with Inkscape (http://www.inkscape.org/) -->

<svg
   width="218.69637mm"
   height="218.15642mm"
   viewBox="0 0 218.69637 218.15642"
   version="1.1"
   id="svg1"
   xml:space="preserve"
   xmlns:inkscape="http://www.inkscape.org/namespaces/inkscape"
   xmlns:sodipodi="http://sodipodi.sourceforge.net/DTD/sodipodi-0.dtd"
   xmlns="http://www.w3.org/2000/svg"
   xmlns:svg="http://www.w3.org/2000/svg"><sodipodi:namedview
     id="namedview1"
     pagecolor="#ffffff"
     bordercolor="#000000"
     borderopacity="0.25"
     inkscape:showpageshadow="2"
     inkscape:pageopacity="0.0"
     inkscape:pagecheckerboard="0"
     inkscape:deskcolor="#d1d1d1"
     inkscape:document-units="mm" /><defs
     id="defs1" /><g
     inkscape:label="Layer 1"
     inkscape:groupmode="layer"
     id="layer1"
     transform="translate(-249.41605,-50.728999)"><g
       id="g1"
       transform="translate(253.74513,11.316681)"><path
         style="display:inline;fill:#d1e6ea;fill-opacity:1"
         d="m 95.600941,257.22637 -2.116667,-0.19242 -2.116666,-0.26747 -2.116667,-0.26748 -1.058333,-0.17618 -1.058334,-0.17618 -2.778124,-0.5238 -2.778125,-0.5238 -3.571875,-0.90258 -3.571875,-0.90257 -3.571875,-1.188 -3.571874,-1.18799 -1.719792,-0.63339 -1.719792,-0.63339 -1.719791,-0.72676 -1.719792,-0.72677 -3.96875,-1.98634 -3.968749,-1.98635 -2.513542,-1.46864 -2.513541,-1.46865 -3.175,-2.11392 -3.175,-2.11393 -1.719792,-1.33847 -1.719791,-1.33846 -2.513542,-1.99679 -2.513541,-1.99679 -4.365625,-4.29466 -4.365625,-4.29466 -2.687361,-3.24632 -2.68736,-3.24632 -0.957155,-1.26757 -0.957155,-1.26757 -2.449796,-3.62722 -2.449795,-3.62722 -1.08701,-1.85209 -1.0870097,-1.85208 -0.8312451,-1.5875 -0.8312452,-1.5875 -0.251731,-0.39688 -0.251731,-0.39687 -1.2741774,-2.64583 -1.2741774,-2.64584 -1.4948542,-3.83646 -1.4948542,-3.83645 -0.8153637,-2.5085 -0.81536378,-2.5085 -0.39739308,-1.59254 -0.39739309,-1.59255 -0.23744725,-0.52916 -0.2374473,-0.52917 -0.1250984,-0.79375 -0.1250984,-0.79375 -0.587689,-2.91042 -0.5876891,-2.91041 -0.2129505,-0.52917 -0.2129505,-0.52917 -0.1515985,-1.4552 -0.1515986,-1.45521 -0.4219183,-3.57188 -0.4219183,-3.57187 -0.1311894,-6.32581 -0.1311893,-6.32582 0.2913196,-3.99293 0.2913195,-3.99294 0.2841667,-2.38125 0.2841667,-2.38125 0.2250176,-0.92604 0.2250177,-0.92604 0.8333435,-4.36563 0.8333434,-4.36562 0.21833853,-0.52917 0.21833848,-0.52917 0.44907713,-1.70247 0.44907712,-1.70247 1.15825864,-3.43761 1.1582587,-3.43761 1.3774476,-3.32659 1.3774477,-3.32658 1.6932992,-3.439582 1.6932993,-3.439584 1.1852067,-1.984374 1.1852069,-1.984375 0.313085,-0.509106 0.313085,-0.509105 1.910599,-2.930478 1.910599,-2.930478 0.216964,-0.264583 0.216965,-0.264583 1.176427,-1.5875 1.176428,-1.5875 2.495963,-3.042708 2.495964,-3.042709 3.857337,-3.840765 3.857337,-3.840765 1.343084,-1.186318 1.343084,-1.186318 1.157413,-0.926041 1.157413,-0.926042 0.806794,-0.691543 0.806795,-0.691542 2.778125,-1.962744 2.778124,-1.962743 1.852084,-1.204151 1.852083,-1.204151 3.439583,-1.996673 3.439583,-1.996674 2.218994,-1.111346 2.218993,-1.111346 2.411215,-1.068508 2.411214,-1.068507 2.778125,-1.04232 2.778125,-1.042319 2.778125,-0.895858 2.778125,-0.895858 2.722189,-0.683538 2.722189,-0.683538 4.289269,-0.89462 4.289269,-0.89462 2.910416,-0.293262 2.910417,-0.293262 2.38125,-0.288243 2.38125,-0.288243 7.805209,0.126211 7.80521,0.126211 2.38125,0.286721 2.38125,0.286722 2.91041,0.427335 2.91042,0.427335 1.32292,0.353364 1.32291,0.353363 1.05834,0.164618 1.05833,0.164618 3.175,0.816503 3.175,0.816503 3.13867,1.047623 3.13867,1.047623 0.5655,0.220714 0.56549,0.220714 2.91042,1.137694 2.91041,1.137695 4.7625,2.407348 4.7625,2.407349 3.04271,1.833124 3.04271,1.833124 3.70417,2.630157 3.70416,2.630158 0.13229,0.159061 0.1323,0.159061 1.19062,0.907328 1.19063,0.907328 2.11666,1.838302 2.11667,1.838301 3.74883,3.777248 3.74883,3.777247 2.03343,2.466119 2.03343,2.46612 0.31954,0.264583 0.31955,0.264583 1.09913,1.5875 1.09912,1.5875 1.32409,1.852083 1.32409,1.852084 1.90834,3.042708 1.90835,3.042708 2.29731,4.497916 2.29731,4.497916 1.06458,2.51354 1.06458,2.51354 0.57953,1.5875 0.57954,1.5875 0.24344,0.45943 0.24344,0.45944 v 0.47984 0.47984 l 0.21857,0.25135 0.21858,0.25135 0.34075,1.19063 0.34075,1.19062 0.2243,0.52917 0.2243,0.52917 1.17413,4.89479 1.17414,4.89479 0.45221,3.04271 0.45221,3.04271 0.23586,0.45943 0.23586,0.45943 0.002,1.26036 0.002,1.26036 0.26887,2.24896 0.26887,2.24896 0.003,7.77664 0.003,7.77664 -0.26557,2.01294 -0.26557,2.01294 -0.29377,2.38125 -0.29377,2.38125 -0.38688,2.11667 -0.38687,2.11666 -0.4194,1.98438 -0.41939,1.98437 -0.62772,2.56139 -0.62772,2.56139 -1.35396,4.0532 -1.35397,4.05319 -0.92102,2.24896 -0.92102,2.24896 -0.79101,1.71979 -0.79102,1.71979 -1.495,3.04271 -1.495,3.04271 -0.20152,0.0882 -0.20153,0.0882 v 0.31222 0.31221 l -0.92604,1.37509 -0.92604,1.37509 v 0.18119 0.18119 l -1.75753,2.67352 -1.75753,2.67352 -0.22684,0.0882 -0.22685,0.0882 -0.003,0.30868 -0.003,0.30868 -0.91995,1.19063 -0.91994,1.19062 -0.26811,0.31956 -0.26811,0.31957 v 0.14345 0.14346 l -0.46302,0.48382 -0.46302,0.48382 -0.59532,0.70882 -0.59531,0.70882 v 0.12826 0.12827 l -0.59531,0.69591 -0.59531,0.69592 -0.66146,0.72954 -0.66146,0.72954 -1.18954,1.42083 -1.18954,1.42083 -3.56889,3.53306 -3.56889,3.53307 -1.32699,1.09032 -1.32698,1.09032 -0.52917,0.46688 -0.52917,0.46688 -2.24896,1.71719 -2.24895,1.7172 -0.26459,0.20799 -0.26458,0.208 -4.23333,2.80489 -4.23334,2.80489 -1.71979,0.98023 -1.71979,0.98024 -0.52917,0.28957 -0.52916,0.28957 -2.91042,1.48284 -2.91042,1.48285 -1.5875,0.70373 -1.5875,0.70374 -1.05833,0.43848 -1.05833,0.43849 -2.91042,1.05783 -2.91041,1.05783 -1.7198,0.51286 -1.71979,0.51286 -1.1989,0.36215 -1.1989,0.36216 -2.76985,0.6624 -2.76985,0.6624 -2.11666,0.41456 -2.11667,0.41456 -1.71979,0.31209 -1.71979,0.3121 -1.98438,0.23676 -1.98437,0.23677 -2.51355,0.22825 -2.51354,0.22825 -7.01145,-0.0183 -7.011463,-0.0183 z"
         id="path5" /><path
         style="fill:#e54e92"
         d="m 99.305107,257.21561 -2.645833,-0.21958 -3.175,-0.26677 -3.175,-0.26677 -3.307291,-0.5578 -3.307292,-0.5578 -3.704166,-0.88905 -3.704167,-0.88906 -3.042708,-0.91099 -3.042708,-0.911 -1.190625,-0.4416 -1.190625,-0.44161 -1.719791,-0.6208 -1.719792,-0.6208 -1.852083,-0.78898 -1.852083,-0.78898 -3.307292,-1.57735 -3.307291,-1.57735 -3.96875,-2.32742 -3.96875,-2.32742 -3.175,-2.20389 -3.175,-2.20389 -3.536324,-2.82121 -3.536325,-2.8212 -3.444555,-3.33746 -3.444555,-3.33746 -2.676412,-3.05428 -2.676411,-3.05429 -0.75365,-0.91446 -0.753649,-0.91447 -2.452443,-3.43958 -2.452443,-3.43958 -1.438744,-2.24896 -1.438744,-2.24896 -1.2109905,-2.11667 -1.2109903,-2.11666 -1.596639,-3.175 -1.596639,-3.175 -1.3765396,-3.3073 -1.3765397,-3.30729 -1.2796114,-3.83646 -1.27961148,-3.83645 -1.18250637,-4.7625 -1.18250635,-4.7625 -0.5362365,-3.43959 -0.5362365,-3.43958 -0.3405809,-2.77812 -0.340581,-2.77813 -7.258e-4,-9.12812 -7.259e-4,-9.12813 0.4747237,-3.57187 0.4747237,-3.57188 0.5436114,-3.04271 0.5436113,-3.0427 1.027173,-4.17901 1.02717298,-4.179 1.35706392,-4.02308 1.3570639,-4.02308 1.2078724,-2.91042 1.2078724,-2.91041 2.4010918,-4.762502 2.4010918,-4.7625 2.243955,-3.508786 2.243955,-3.508786 2.074647,-2.841214 2.074647,-2.841213 2.55832,-3.111577 2.55832,-3.111577 3.704167,-3.641761 3.704166,-3.64176 2.38125,-1.995609 2.38125,-1.995609 2.38125,-1.863043 2.38125,-1.863044 2.825894,-1.88775 2.825895,-1.88775 2.994938,-1.752075 2.994939,-1.752075 3.160844,-1.58514 3.160845,-1.58514 2.395405,-1.061637 2.395405,-1.061638 4.293846,-1.539178 4.293846,-1.539178 2.849904,-0.804151 2.849903,-0.804151 3.836458,-0.806437 3.836459,-0.806438 3.492951,-0.518984 3.492952,-0.518984 3.386214,-0.268375 3.386215,-0.268375 3.348523,-0.172189 3.34853,-0.172189 4.58897,0.326751 4.58898,0.326751 4.08411,0.511698 4.08412,0.511698 2.58021,0.525814 2.58021,0.525813 2.86067,0.674651 2.86068,0.674651 2.91041,0.886381 2.91042,0.886381 2.51354,0.916194 2.51354,0.916195 2.64583,1.124053 2.64584,1.124053 3.68814,1.841855 3.68815,1.841856 2.52956,1.478444 2.52956,1.478443 3.14991,2.100668 3.14991,2.100668 0.95189,0.699523 0.95188,0.699524 3.30654,2.630498 3.30654,2.630497 4.76786,4.777835 4.76786,4.777835 2.11131,2.623715 2.1113,2.623714 1.32361,1.741911 1.32361,1.74191 2.00675,3.042708 2.00676,3.042708 0.94636,1.5875 0.94637,1.5875 0.96461,1.719792 0.96461,1.719791 1.59958,3.307296 1.59957,3.30729 1.39357,3.57187 1.39357,3.57188 0.80405,2.38125 0.80406,2.38125 0.92949,3.43958 0.92949,3.43958 0.697,3.43959 0.697,3.43958 0.50869,3.65268 0.5087,3.65268 0.31987,5.4093 0.31988,5.4093 -0.32064,5.42224 -0.32064,5.42225 -0.63978,4.56577 -0.63979,4.56578 -0.69464,3.30729 -0.69464,3.30729 -0.92869,3.26247 -0.92869,3.26247 -1.1922,3.35211 -1.19221,3.35212 -0.93615,2.24895 -0.93616,2.24896 -2.04401,4.10104 -2.04402,4.10105 -0.9256,1.5875 -0.92561,1.5875 -1.52591,2.48728 -1.5259,2.48729 -1.33674,1.87834 -1.33673,1.87833 -1.71815,2.24896 -1.71814,2.24896 -1.47832,1.71979 -1.47831,1.71979 -1.06006,1.16346 -1.06005,1.16346 -2.13961,2.14383 -2.13961,2.14384 -1.69685,1.59017 -1.69685,1.59016 -2.77812,2.249 -2.77813,2.249 -0.92604,0.646 -0.92604,0.64601 -0.13229,0.14892 -0.13229,0.14893 -3.83646,2.5413 -3.83646,2.5413 -2.00249,1.19027 -2.00248,1.19026 -4.87668,2.39461 -4.87668,2.39461 -3.04271,1.17797 -3.04271,1.17797 -2.51354,0.80624 -2.51354,0.80625 -3.04271,0.77972 -3.04271,0.77972 -1.85208,0.42973 -1.85208,0.42973 -2.11667,0.39119 -2.11667,0.39119 -2.77812,0.396 -2.77813,0.39599 -5.17123,0.40627 -5.17124,0.40628 -2.50168,-0.0366 -2.50168,-0.0366 z m 29.362783,-16.30501 0.18523,-0.98732 0.25718,-0.48056 0.25719,-0.48055 0.64537,-0.24537 0.64537,-0.24537 v -0.27114 -0.27113 h -0.2285 -0.22851 l -0.68483,-0.68483 -0.68483,-0.68483 -0.17504,-1.16725 -0.17504,-1.16725 h -0.2045 -0.2045 l -0.17476,1.1654 -0.17476,1.1654 -0.60118,0.64868 -0.60118,0.64869 -0.37858,0.17029 -0.37858,0.17029 0.37858,0.17029 0.37858,0.17029 0.59315,0.64002 0.59315,0.64002 0.176,1.04177 0.17601,1.04177 h 0.21188 0.21188 z m -52.045544,-35.67026 0.967562,-0.40427 0.511117,-0.45293 0.511116,-0.45293 0.498171,-1.11326 0.498171,-1.11326 0.161405,-2.09306 0.161406,-2.09306 -0.338287,-1.82077 -0.338287,-1.82076 -1.021692,-0.9821 -1.021691,-0.98209 -1.370407,-0.40697 -1.370408,-0.40697 H 72.811776 71.15303 l -1.39952,0.30015 -1.39952,0.30014 -0.664024,0.42382 -0.664024,0.42383 -0.346197,0.40051 -0.346198,0.40051 -0.560371,1.19063 -0.560371,1.19062 v 2.91042 2.91042 l 0.542487,1.215 0.542487,1.21501 0.760956,0.54106 0.760957,0.54106 1.058333,0.2911 1.058334,0.29111 0.661458,0.11657 0.661458,0.11657 2.197754,-0.11591 2.197754,-0.11592 z m 20.554193,-0.1419 1.083563,-0.54116 0.55938,-0.8427 0.55938,-0.84271 0.328174,-1.42213 0.328174,-1.42212 -0.128138,-2.44976 -0.128138,-2.44975 -0.572051,-1.1817 -0.57205,-1.18169 -1.384654,-0.76726 -1.384655,-0.76725 -3.042708,0.008 -3.042708,0.008 -1.260877,0.61847 -1.260876,0.61847 -0.556722,0.78184 -0.556722,0.78184 -0.365214,1.21352 -0.365214,1.21351 v 1.9293 1.9293 l 0.288164,1.34367 0.288165,1.34366 0.669393,0.79553 0.669393,0.79553 0.81815,0.42308 0.81815,0.42308 1.333146,0.21282 1.333147,0.21282 2.230392,-0.12144 2.230392,-0.12143 z m 20.120231,0.0104 1.05834,-0.51253 0.56154,-0.87312 0.56155,-0.87312 0.29835,-1.39117 0.29835,-1.39116 -0.003,-1.77291 -0.003,-1.77292 -0.36355,-1.36542 -0.36355,-1.36542 -0.49321,-0.67687 -0.4932,-0.67686 -1.19063,-0.57234 -1.19062,-0.57234 -2.24896,-0.13007 -2.24896,-0.13006 -1.48741,0.30901 -1.48742,0.30901 -1.035,0.88592 -1.035,0.88592 -0.45415,1.44072 -0.45414,1.44073 v 2.2826 2.2826 l 0.42352,1.26602 0.42353,1.26602 0.56866,0.62045 0.56866,0.62045 0.78352,0.40745 0.78352,0.40744 1.33315,0.21133 1.33314,0.21133 2.24896,-0.12909 2.24896,-0.12908 z m 19.67444,0.12167 0.96306,-0.40229 0.70621,-0.67643 0.70622,-0.67643 0.45478,-1.8558 0.45479,-1.85579 -0.16846,-2.1501 -0.16846,-2.15009 -0.27136,-0.97042 -0.27136,-0.97042 -0.9208,-0.80847 -0.92079,-0.80847 -1.5044,-0.43734 -1.5044,-0.43734 -2.40838,0.12597 -2.40838,0.12598 -1.31156,0.6536 -1.31156,0.65359 -0.76187,1.4879 -0.76186,1.48789 -0.13329,1.86279 -0.13328,1.86279 0.32031,1.62807 0.3203,1.62807 0.31026,0.54547 0.31026,0.54548 0.39687,0.44286 0.39688,0.44287 0.91581,0.46621 0.91581,0.46621 1.33315,0.21208 1.33315,0.21207 2.07965,-0.12411 2.07964,-0.12411 z m 38.80114,-1.18011 0.17567,-0.79981 0.75006,-0.55454 0.75006,-0.55455 -0.7506,-0.63158 -0.75061,-0.63159 -0.17779,-1.05235 -0.17779,-1.05234 -0.22251,-0.13752 -0.22251,-0.13752 -0.13159,0.46687 -0.13159,0.46686 -0.15911,0.79634 -0.15911,0.79635 -0.78592,0.52657 -0.78593,0.52657 -7.6e-4,0.1357 -7.6e-4,0.1357 0.59531,0.26117 0.59532,0.26118 0.51497,1.10799 0.51498,1.10798 0.19227,-0.11883 0.19227,-0.11883 z m -142.892398,-12.6177 0.181081,-2.5837 0.366792,-2.53896 0.366793,-2.53895 0.663691,-1.76327 0.663692,-1.76326 0.789049,-1.14685 0.78905,-1.14684 0.928013,-0.81481 0.928013,-0.8148 1.667201,-0.78721 1.6672,-0.7872 1.5875,-0.33168 1.5875,-0.33168 0.361596,-0.33048 0.361597,-0.33048 -0.493888,-0.24736 -0.493889,-0.24735 -1.5875,-0.33951 -1.587499,-0.3395 -1.554824,-0.78259 -1.554823,-0.78259 -1.254418,-1.17336 -1.254417,-1.17336 -0.811064,-1.52171 -0.811064,-1.52171 -0.531587,-2.64204 -0.531586,-2.64204 -0.301851,-3.30729 -0.301851,-3.30729 -0.118077,-0.60613 -0.118076,-0.60614 -0.222156,0.1373 -0.222155,0.1373 -0.177236,2.18863 -0.177237,2.18862 -0.259473,2.11667 -0.259473,2.11667 -0.421959,1.98437 -0.42196,1.98438 -0.729399,1.5875 -0.729398,1.5875 -1.191629,1.17341 -1.191629,1.17342 -1.686745,0.86985 -1.686746,0.86985 -1.931928,0.43374 -1.931927,0.43373 0.07984,0.39625 0.07984,0.39626 2.248958,0.56632 2.248958,0.56633 1.23356,0.72516 1.233559,0.72515 0.856663,0.72084 0.856664,0.72083 0.840632,1.33214 0.840632,1.33213 0.465428,1.18693 0.465428,1.18693 0.477879,2.91412 0.477878,2.91411 0.190663,2.51354 0.190662,2.51354 0.120646,0.20275 0.120645,0.20276 0.214536,-0.13259 0.214536,-0.13259 z m 42.377311,-4.53733 1.087571,-0.21078 1.150621,-0.77277 1.150621,-0.77276 0.599062,-1.71691 0.599063,-1.7169 0.007,-1.93336 0.007,-1.93336 -0.292094,-1.16001 -0.292095,-1.16001 -0.897582,-1.04863 -0.897582,-1.04862 -1.238706,-0.42207 -1.238706,-0.42207 -2.400263,0.001 -2.400263,10e-4 -0.957165,0.26588 -0.957165,0.26587 -0.87424,0.59255 -0.874241,0.59254 -0.451778,0.81238 -0.451779,0.81239 -0.321637,1.90687 -0.321637,1.90688 0.187353,1.61424 0.187352,1.61425 0.505679,1.14317 0.50568,1.14317 0.721164,0.4964 0.721164,0.4964 0.79375,0.29594 0.79375,0.29594 0.529167,0.11644 0.529166,0.11644 1.852084,0.0192 1.852083,0.0192 z m 21.699458,-0.50678 1.091197,-0.5591 0.675079,-0.80228 0.67508,-0.80229 0.317527,-1.41886 0.317526,-1.41886 -0.108979,-2.48681 -0.108981,-2.48681 -0.655233,-1.1873 -0.655233,-1.1873 -1.187298,-0.65811 -1.187299,-0.65812 -2.696665,-0.10226 -2.696666,-0.10225 -1.484732,0.467 -1.484733,0.46701 -0.876604,1.02411 -0.876603,1.02412 -0.299811,1.49286 -0.29981,1.49287 v 1.76082 1.76083 l 0.440183,1.3039 0.440183,1.3039 0.419712,0.58656 0.419713,0.58657 0.926042,0.4541 0.926042,0.45411 0.926041,0.20193 0.926042,0.20192 2.513541,-0.0766 2.513542,-0.0766 z m 20.129999,0.069 1.11285,-0.45788 0.65255,-0.98606 0.65254,-0.98606 0.31921,-1.62252 0.31921,-1.62252 -0.1205,-2.0522 -0.1205,-2.05221 -0.50025,-1.05833 -0.50024,-1.05833 -0.40553,-0.4294 -0.40554,-0.42939 -0.92604,-0.48318 -0.92604,-0.48319 -2.6777,-0.10835 -2.6777,-0.10835 -1.4442,0.41984 -1.44421,0.41985 -0.82972,0.79293 -0.82973,0.79292 -0.43492,1.49609 -0.43492,1.49608 0.12101,2.6777 0.12101,2.6777 0.44705,0.8414 0.44704,0.8414 0.91023,0.79919 0.91024,0.7992 0.99784,0.16701 0.99785,0.16701 0.26458,0.10663 0.26458,0.10663 2.51354,-0.10286 2.51355,-0.10286 z m 20.05701,-0.0823 1.06154,-0.52057 0.45285,-0.50039 0.45284,-0.50038 0.3808,-1.07931 0.3808,-1.0793 0.18023,-1.44248 0.18023,-1.44249 -0.31405,-2.09528 -0.31404,-2.09529 -0.65222,-0.86234 -0.65222,-0.86234 -1.10915,-0.59287 -1.10915,-0.59287 h -3.30729 -3.30729 l -1.16719,0.66146 -1.16719,0.66146 -0.47916,0.66146 -0.47915,0.66146 -0.40418,1.57694 -0.40418,1.57694 v 1.41475 1.41475 l 0.3126,1.24164 0.3126,1.24164 0.49449,0.83821 0.49449,0.8382 0.70872,0.46438 0.70872,0.46437 1.06388,0.35215 1.06388,0.35214 2.77812,-0.11774 2.77813,-0.11773 z m 63.08783,-2.80343 0.31729,-0.38231 -0.0865,-0.58285 -0.0864,-0.58286 -0.46303,-0.29025 -0.46302,-0.29025 -0.46302,0.29025 -0.46302,0.29025 -0.0865,0.58286 -0.0865,0.58285 0.31729,0.38231 0.31729,0.38231 h 0.46437 0.46438 z m -11.27363,-7.62958 0.16598,-1.41219 0.33434,-0.94719 0.33435,-0.94719 0.6171,-0.79985 0.6171,-0.79985 1.30987,-0.56349 1.30988,-0.56349 -0.14407,-0.23311 -0.14407,-0.23312 -0.77829,-0.17094 -0.77829,-0.17094 -0.70704,-0.55615 -0.70703,-0.55615 -0.62262,-1.34379 -0.62262,-1.34378 -0.17283,-1.52727 -0.17282,-1.52728 -0.21276,-0.13149 -0.21276,-0.13149 -0.1735,1.26189 -0.17351,1.26189 -0.43879,1.44627 -0.43878,1.44627 -0.85801,0.85813 -0.85801,0.85813 -1.06022,0.28548 -1.06022,0.28549 v 0.22131 0.22132 l 0.72761,0.1462 0.7276,0.1462 0.92604,0.61683 0.92604,0.61683 0.57761,1.18827 0.5776,1.18827 0.32297,1.77642 0.32296,1.77641 0.18661,-0.11533 0.18661,-0.11533 z m -112.993954,-8.14776 1.645299,-0.54924 0.690936,-0.79884 0.690936,-0.79885 0.316537,-0.96702 0.316537,-0.96702 0.15205,-2.14674 0.152051,-2.14673 -0.332586,-1.42514 -0.332586,-1.42514 -0.665947,-0.89134 -0.665947,-0.89133 -1.175054,-0.51979 -1.175054,-0.51978 -1.923485,-0.14547 -1.923485,-0.14547 -1.979518,0.4404 -1.979519,0.4404 -0.817831,0.85161 -0.817831,0.8516 -0.48281,1.19063 -0.48281,1.19062 0.0055,2.64584 0.0055,2.64583 0.332844,0.95305 0.332844,0.95305 0.730591,0.81831 0.730591,0.81832 0.783161,0.31558 0.783161,0.31557 0.926042,0.19774 0.926042,0.19774 1.794283,0.0304 1.794284,0.0304 z m 20.238887,0.0259 1.514744,-0.52335 0.847253,-0.96132 0.847252,-0.96131 0.309472,-1.49072 0.309476,-1.49072 -0.122927,-2.55276 -0.122924,-2.55276 -0.699332,-1.19331 -0.699332,-1.19332 -1.143739,-0.55368 -1.143739,-0.55367 -2.002554,-0.16928 -2.002555,-0.16928 -1.777098,0.33532 -1.777098,0.33531 -1.099619,0.83739 -1.099618,0.83738 -0.355308,1.04619 -0.355307,1.0462 -0.144749,2.17865 -0.144749,2.17866 0.344204,1.62197 0.344205,1.62196 0.650389,0.77295 0.650388,0.77294 0.782448,0.40462 0.782448,0.40462 1.104265,0.21834 1.104265,0.21835 1.792548,0.029 1.792547,0.029 z m 21.007157,-0.311 1.12461,-0.62086 0.59018,-0.87621 0.59018,-0.87622 0.30977,-1.49216 0.30977,-1.49215 -0.1088,-2.27562 -0.1088,-2.27561 -0.64862,-1.30914 -0.64862,-1.30914 -1.29499,-0.61089 -1.295,-0.61089 -2.14978,-0.15171 -2.14977,-0.15171 -1.45002,0.3098 -1.45002,0.3098 -0.98696,0.65154 -0.98696,0.65153 -0.56701,1.11141 -0.567,1.11142 -0.13471,2.15923 -0.13471,2.15924 0.18469,1.4782 0.18469,1.4782 0.57794,0.84892 0.57794,0.84892 0.67828,0.50218 0.67827,0.50218 1.3061,0.37628 1.3061,0.37629 2.56932,-0.10099 2.56932,-0.10099 z m 19.91484,0.0128 1.30725,-0.63366 0.48998,-0.67354 0.48999,-0.67355 0.37615,-1.57541 0.37615,-1.57542 0.005,-1.5875 0.005,-1.5875 -0.36175,-1.53745 -0.36175,-1.53746 -0.6263,-0.67724 -0.6263,-0.67725 -1.19063,-0.54409 -1.19062,-0.5441 -3.04271,-0.006 -3.04271,-0.006 -0.92604,0.44564 -0.92604,0.44565 -0.59414,0.50886 -0.59413,0.50887 -0.56479,1.28146 -0.5648,1.28146 -0.12839,1.99099 -0.12839,1.99099 0.42324,1.6521 0.42325,1.65209 0.56342,0.76206 0.56342,0.76207 1.0008,0.4513 1.00079,0.45129 0.88736,0.22627 0.88736,0.22627 2.38125,-0.0834 2.38125,-0.0834 z m 37.49951,-7.81842 0.48386,-0.43788 v -0.47315 -0.47316 l -0.58804,-0.41188 -0.58804,-0.41188 h -0.3191 -0.31911 l -0.41577,0.41578 -0.41578,0.41577 v 0.49137 0.49137 l 0.41578,0.41577 0.41577,0.41578 h 0.42329 0.42329 z m -162.442716,-3.82898 0.453626,-0.47684 -0.701106,-1.07085 -0.701106,-1.07086 -0.321705,0.76511 -0.321704,0.76511 -0.295368,0.18255 -0.2953679,0.18255 0.5338239,0.67865 0.533823,0.67864 0.01556,0.42734 0.01556,0.42734 0.31517,-0.50595 0.315169,-0.50595 z m 188.874856,-7.72444 -0.47229,-1.10557 -0.19097,0.85832 -0.19096,0.85832 -0.41187,0.23049 -0.41186,0.23049 0.56483,0.56484 0.56484,0.56483 v 0.45282 0.45282 l 0.51028,-1.00089 0.51029,-1.0009 z m -84.7138,0.80388 1.16261,-0.32195 0.88371,-0.88215 0.88371,-0.88214 0.33493,-1.10223 0.33494,-1.10223 -0.007,-2.93136 -0.007,-2.93136 -0.65994,-1.30197 -0.65993,-1.30197 -1.22505,-0.61081 -1.22505,-0.6108 -2.34561,-0.15197 -2.34562,-0.15196 -1.4508,0.31107 -1.4508,0.31106 -0.84579,0.57945 -0.8458,0.57945 -0.60311,1.06288 -0.60311,1.06288 -0.0996,2.78143 -0.0996,2.78143 0.29114,1.08121 0.29114,1.08121 0.59587,0.87684 0.59588,0.87684 0.98253,0.50697 0.98253,0.50696 1.79559,0.21849 1.7956,0.21849 1.19062,-0.1159 1.19063,-0.11591 z m -40.141534,-0.0693 1.199708,-0.40878 0.789954,-0.77233 0.789954,-0.77233 0.474146,-1.75163 0.474147,-1.75164 -0.130996,-2.29748 -0.130997,-2.29748 -0.554286,-1.08649 -0.554286,-1.0865 -0.802706,-0.67543 -0.802706,-0.67543 -1.524,-0.3166 -1.524,-0.31661 -2.248958,0.13812 -2.248958,0.13811 -0.79375,0.35857 -0.79375,0.35857 -0.700462,0.47472 -0.700462,0.47471 -0.603223,1.37642 -0.603223,1.37642 -0.01905,2.77812 -0.01905,2.77813 0.626048,1.31966 0.626048,1.31966 0.559687,0.40013 0.559687,0.40013 1.063041,0.43558 1.063041,0.43559 2.664847,0.0274 2.664846,0.0274 z m 20.088489,0.007 1.179864,-0.40202 0.720858,-0.66842 0.720859,-0.66842 0.448685,-0.98008 0.448685,-0.98008 0.01232,-3.30729 0.01232,-3.30729 -0.588813,-1.1022 -0.588812,-1.1022 -0.733594,-0.51822 -0.733594,-0.51821 -1.402086,-0.29782 -1.402085,-0.29781 h -1.65118 -1.65118 l -1.576943,0.40096 -1.576943,0.40097 -0.942571,0.9908 -0.942572,0.99081 -0.351235,1.65509 -0.351234,1.6551 0.137273,2.20033 0.137274,2.20032 0.518221,1.16896 0.518222,1.16895 0.472911,0.39687 0.472911,0.39688 1.223733,0.44251 1.223734,0.44252 2.532555,0.0205 2.532555,0.0205 z m 40.245745,-0.01 1.20894,-0.41193 0.82448,-0.90604 0.82449,-0.90605 0.39104,-1.65859 0.39105,-1.65858 -2.2e-4,-1.45521 -2.3e-4,-1.45521 -0.36175,-1.53746 -0.36175,-1.53746 -0.6263,-0.6711 -0.6263,-0.6711 -1.05834,-0.55653 -1.05833,-0.55653 -2.91042,-0.0113 -2.91041,-0.0113 -1.18416,0.35527 -1.18416,0.35527 -0.80271,0.85112 -0.8027,0.85112 -0.46053,1.46097 -0.46054,1.46097 v 1.78811 1.78811 l 0.42095,1.44799 0.42094,1.44798 0.79707,0.90782 0.79708,0.90782 1.22938,0.37847 1.22938,0.37846 2.53255,0.0184 2.53256,0.0184 z m 32.18951,-9.83992 0.28636,-2.18205 0.50919,-0.99295 0.50918,-0.99294 0.62435,-0.58239 0.62436,-0.58239 1.25973,-0.55724 1.25973,-0.55723 -0.14158,-0.22908 -0.14158,-0.22908 -0.82045,-0.18021 -0.82045,-0.1802 -1.01241,-0.91464 -1.0124,-0.91464 -0.52755,-1.63749 -0.52755,-1.63749 -0.17608,-1.65365 -0.17608,-1.65365 h -0.19851 -0.19851 l -0.32281,2.31511 -0.3228,2.3151 -0.47779,1.08294 -0.47778,1.08294 -0.76086,0.71105 -0.76086,0.71104 -1.13999,0.33564 -1.13999,0.33564 -0.002,0.23062 -0.002,0.23062 1.24447,0.47239 1.24446,0.47239 0.62242,0.58473 0.62241,0.58472 0.51719,1.08056 0.51719,1.08056 0.32057,2.32635 0.32057,2.32635 0.19536,-0.20969 0.19537,-0.20968 z m -129.763708,-1.54101 0.415773,-0.41577 v -0.49137 -0.49137 l -0.415773,-0.41577 -0.415774,-0.41578 h -0.263079 -0.263078 l -0.511773,0.2739 -0.511773,0.27389 v 0.73152 0.73153 l 0.3175,0.3175 0.3175,0.3175 h 0.457352 0.457351 z m -23.126331,-10.38161 0.0058,-0.97657 0.503471,-1.10896 0.50347,-1.10895 1.078219,-0.55007 1.078219,-0.55007 v -0.12336 -0.12336 l -0.885702,-0.37007 -0.885701,-0.37007 -0.569834,-0.92201 -0.569835,-0.92202 -0.266124,-1.40326 -0.266125,-1.40327 -0.106265,-0.10627 -0.106265,-0.10626 -0.137121,0.48296 -0.137122,0.48296 -0.167447,1.0805 -0.167446,1.08051 -0.505231,0.83078 -0.505231,0.83079 -1.000296,0.42853 -1.000297,0.42853 0.494926,0.30601 0.494925,0.30601 0.827991,0.53709 0.827992,0.53708 0.311321,1.05042 0.311322,1.05041 0.165068,0.99954 0.165067,0.99954 0.251215,-0.15526 0.251215,-0.15526 z m 23.142699,-7.6573 0.153739,-0.99219 0.401021,-2.18306 0.401022,-2.18306 0.409285,-0.99194 0.409285,-0.99194 0.643377,-0.85264 0.643376,-0.85264 1.122622,-0.77239 1.122623,-0.77238 1.118402,-0.33508 1.118403,-0.33509 v -0.35499 -0.35499 l -0.330729,-2.1e-4 -0.330729,-2.1e-4 -1.602849,-0.75829 -1.602849,-0.75828 -0.922178,-1.07736 -0.922177,-1.07735 -0.575162,-1.66988 -0.575161,-1.66988 -0.275721,-2.248961 -0.275722,-2.248958 -0.143188,-0.867248 -0.143188,-0.867249 -0.251215,0.155259 -0.251215,0.15526 v 0.896995 0.896995 l -0.548955,2.857702 -0.548955,2.857705 -0.467531,1.05833 -0.467531,1.05833 -0.73777,0.87291 -0.737771,0.8729 -1.222306,0.61585 -1.222306,0.61585 -0.859895,0.18592 -0.859896,0.18591 v 0.32106 0.32106 l 1.488072,0.50581 1.488072,0.50582 1.097096,0.83769 1.097097,0.8377 0.716497,1.31644 0.716497,1.31644 0.383458,1.69432 0.383459,1.69432 0.182157,1.78594 0.182157,1.78594 h 0.221771 0.221772 z m 91.41607,0.71492 1.19062,-0.26433 0.92604,-0.45445 0.92605,-0.45445 1.19062,-0.92638 1.19063,-0.92639 0.46945,-0.53118 0.46945,-0.53118 0.6234,-1.19062 0.62339,-1.19063 0.31639,-1.4552 0.3164,-1.45521 -0.0863,-11.377086 -0.0863,-11.377082 -0.82193,-1.719792 -0.82192,-1.719792 -1.25677,-1.22776 -1.25677,-1.22776 -1.37554,-0.695958 -1.37553,-0.695959 -1.57285,-0.257561 -1.57286,-0.257561 -25.54984,-0.0015 -25.549844,-0.0015 -1.468585,0.271482 -1.468586,0.271483 -1.291987,0.625673 -1.291986,0.625672 -1.22201,1.079108 -1.222009,1.079108 -0.894657,1.794049 -0.894657,1.794049 -0.07399,12.012791 -0.07399,12.012796 0.447241,1.34867 0.44724,1.34866 0.512004,0.92605 0.512004,0.92604 1.183985,1.1295 1.183984,1.12951 1.303122,0.66034 1.303122,0.66034 0.993266,0.2341 0.993266,0.23409 26.458337,0.0201 26.45833,0.0201 z m -68.737973,-33.787834 0.40029,-0.463021 0.95556,-1.984375 0.95556,-1.984375 0.735677,-0.801268 0.735678,-0.801268 1.386932,-1.005639 1.386931,-1.005639 0.23342,-0.838926 0.23342,-0.838926 -0.327587,-0.529167 -0.327587,-0.529167 -0.925651,-0.07995 -0.925652,-0.07995 -1.538709,0.728544 -1.538709,0.728545 -1.233414,1.246463 -1.233415,1.246463 -0.758978,1.544524 -0.758978,1.544524 -0.106135,1.624668 -0.106134,1.624668 0.558144,0.558144 0.558144,0.558145 h 0.620451 0.620452 z m 11.488546,-26.800285 -0.357364,-0.849917 -0.424186,0.850302 -0.424186,0.850301 0.434166,0.662621 0.434165,0.662621 0.347384,-0.663006 0.347384,-0.663005 z m 31.388367,-0.145218 0.13829,-1.226925 0.51591,-0.697379 0.51591,-0.697379 0.70381,-0.345167 0.70381,-0.345166 V 55.945989 55.76043 l -0.77738,-0.344099 -0.77737,-0.344099 -0.54555,-1.12694 -0.54554,-1.126941 -0.0186,-0.77636 -0.0186,-0.776361 -0.21759,-0.529167 -0.21759,-0.529166 -0.13813,0.396875 -0.13813,0.396875 -0.12991,0.940988 -0.12991,0.940989 -0.40884,0.978511 -0.40885,0.978511 -0.98234,0.579597 -0.98235,0.579597 0.50422,0.279028 0.50422,0.279028 0.83758,0.852806 0.83757,0.852806 0.18727,1.131569 0.18726,1.131569 0.12006,0.202754 0.12005,0.202753 0.21121,-0.130533 0.2112,-0.130533 z"
         id="path4" /><path
         style="fill:#a8478f"
         d="m 102.86077,257.41211 -0.1485,-0.15669 -4.39008,-0.24869 -4.390083,-0.24869 -1.057425,-1.14621 -1.057425,-1.14621 -0.722312,-0.79375 -0.722312,-0.79375 -2.677512,-2.78157 -2.677513,-2.78157 -4.7625,-5.01568 -4.7625,-5.01567 -2.513541,-2.65185 -2.513542,-2.65185 -2.297677,-2.38319 -2.297677,-2.3832 -1.231338,-1.32292 -1.231339,-1.32292 -0.404126,-0.59547 -0.404127,-0.59548 -2.152274,-1.25661 -2.152274,-1.2566 -1.719792,-1.71979 -1.719792,-1.7198 -0.868577,-1.76989 -0.868578,-1.7699 -0.523665,-2.07081 -0.523665,-2.07081 0.06933,-64.15721 0.06933,-64.157201 0.632928,-1.5875 0.632927,-1.5875 1.127933,-1.755422 1.127932,-1.755422 1.634006,-1.359834 1.634005,-1.359833 1.235343,-0.618471 1.235342,-0.618471 1.455209,-0.499607 1.455208,-0.499607 40.348963,0.0032 40.34895,0.0032 1.74069,0.544008 1.74069,0.544007 1.83119,1.018411 1.83118,1.018411 1.5875,1.627391 1.5875,1.627392 0.91752,1.56946 0.91752,1.569461 4.24186,4.502045 4.24185,4.502045 3.70417,3.961068 3.70416,3.961068 2.11667,2.257463 2.11667,2.257458 3.45223,3.69922 3.45223,3.69921 3.42025,3.70417 3.42026,3.70417 1.8802,1.98437 1.8802,1.98438 3.68273,3.97804 3.68273,3.97805 5.68854,6.1792 5.68854,6.1792 0.21979,1.08754 0.21979,1.08755 0.0207,6.08542 0.0208,6.08541 -0.30213,3.175 -0.30213,3.175 -0.41142,3.04271 -0.41142,3.04271 -0.52188,2.77812 -0.52189,2.77813 -0.65499,2.51354 -0.655,2.51354 -0.50881,1.85208 -0.50881,1.85209 -1.11221,3.175 -1.11222,3.175 -0.9249,2.24895 -0.9249,2.24896 -0.52707,1.19063 -0.52706,1.19062 -1.70553,3.40261 -1.70552,3.40261 -1.61121,2.68281 -1.61122,2.68281 -1.15465,1.66632 -1.15465,1.66632 v 0.11733 0.11732 l -0.92948,1.25906 -0.92948,1.25906 -0.20298,0.26458 -0.20298,0.26459 -0.78138,1.05833 -0.78139,1.05833 -1.06272,1.31743 -1.06271,1.31742 -1.56593,1.85758 -1.56593,1.85757 -1.60907,1.69181 -1.60907,1.69181 -1.5875,1.53094 -1.5875,1.53095 -1.08192,1.01058 -1.08191,1.01058 -0.90246,0.8007 -0.90246,0.8007 -1.9832,1.58055 -1.98319,1.58055 -1.58868,1.17265 -1.58868,1.17264 -2.48271,1.67163 -2.4827,1.67162 h -0.22928 -0.22927 v 0.26459 0.26458 h -0.28306 -0.28306 l -1.106,0.75695 -1.10601,0.75694 -2.24895,1.23517 -2.24896,1.23517 -2.91042,1.41857 -2.91042,1.41857 -1.4552,0.64858 -1.45521,0.64859 -1.98438,0.73012 -1.98437,0.73011 -0.48896,0.25614 -0.48895,0.25613 -2.95063,0.91922 -2.95063,0.91921 -2.9877,0.78872 -2.9877,0.78873 -2.03938,0.419 -2.03938,0.41901 -1.98438,0.35926 -1.98437,0.35926 -3.04271,0.41914 -3.04271,0.41915 -3.83646,0.2567 -3.83646,0.25671 -2.77812,0.15703 -2.77813,0.15703 z m 25.82195,-16.36042 0.18767,-1.11081 0.69803,-0.69803 0.69802,-0.69802 0.39433,-0.17554 0.39434,-0.17554 -0.39434,-0.17555 -0.39433,-0.17554 -0.70748,-0.70748 -0.70749,-0.70749 -0.18499,-1.23364 -0.185,-1.23364 h -0.21833 -0.21833 l -0.18135,1.20937 -0.18136,1.20937 -0.65213,0.775 -0.65212,0.77501 h -0.37336 -0.37335 v 0.22212 0.22211 l 0.64746,0.295 0.64747,0.29501 0.38117,0.60736 0.38117,0.60736 0.17398,0.99219 0.17398,0.99219 h 0.22933 0.22934 z m -52.060374,-35.81135 0.967562,-0.40427 0.511117,-0.45293 0.511116,-0.45293 0.498171,-1.11326 0.498171,-1.11326 0.161405,-2.09306 0.161406,-2.09306 -0.334795,-1.77435 -0.334795,-1.77434 -0.661059,-0.78563 -0.661059,-0.78562 -1.091197,-0.5614 -1.091197,-0.5614 -2.052204,-0.12255 -2.052204,-0.12255 -1.62816,0.32032 -1.628161,0.32032 -0.68526,0.43774 -0.685261,0.43774 -0.346197,0.40051 -0.346198,0.40051 -0.560371,1.19063 -0.560371,1.19062 v 2.91042 2.91042 l 0.542487,1.215 0.542487,1.21501 0.760956,0.54106 0.760957,0.54106 1.058333,0.2911 1.058334,0.29111 0.661458,0.11657 0.661458,0.11657 2.197754,-0.11591 2.197754,-0.11592 z m 20.554193,-0.1419 1.083563,-0.54116 0.55938,-0.8427 0.55938,-0.84271 0.328174,-1.42213 0.328174,-1.42212 -0.128138,-2.44976 -0.128138,-2.44975 -0.572051,-1.1817 -0.57205,-1.18169 -1.384654,-0.75605 -1.384655,-0.75605 -2.428042,-0.10806 -2.428042,-0.10807 -1.514534,0.47638 -1.514534,0.47638 -0.875215,0.87521 -0.875215,0.87522 -0.40773,1.37297 -0.407729,1.37298 v 1.92332 1.92333 l 0.288164,1.34367 0.288165,1.34366 0.669393,0.79553 0.669393,0.79553 0.81815,0.42308 0.81815,0.42308 1.333146,0.21282 1.333147,0.21282 2.230392,-0.12144 2.230392,-0.12143 z m 20.120231,0.0104 1.05834,-0.51253 0.56154,-0.87312 0.56155,-0.87312 0.29835,-1.39117 0.29835,-1.39116 -0.003,-1.77291 -0.003,-1.77292 -0.36355,-1.36542 -0.36355,-1.36542 -0.49321,-0.67687 -0.4932,-0.67686 -1.19063,-0.57234 -1.19062,-0.57234 -2.24896,-0.13007 -2.24896,-0.13006 -1.48741,0.30901 -1.48742,0.30901 -1.035,0.88592 -1.035,0.88592 -0.45415,1.44072 -0.45414,1.44073 v 2.2826 2.2826 l 0.42352,1.26602 0.42353,1.26602 0.56866,0.62045 0.56866,0.62045 0.78352,0.40745 0.78352,0.40744 1.33315,0.21133 1.33314,0.21133 2.24896,-0.12909 2.24896,-0.12908 z m 19.67444,0.12167 0.96306,-0.40229 0.70621,-0.67643 0.70622,-0.67643 0.45478,-1.8558 0.45479,-1.85579 -0.16846,-2.1501 -0.16846,-2.15009 -0.27136,-0.97042 -0.27136,-0.97042 -0.9208,-0.80847 -0.92079,-0.80847 -1.5044,-0.43734 -1.5044,-0.43734 -2.40838,0.12597 -2.40838,0.12598 -1.31156,0.6536 -1.31156,0.65359 -0.76187,1.4879 -0.76186,1.48789 -0.13329,1.86279 -0.13328,1.86279 0.32031,1.62807 0.3203,1.62807 0.31026,0.54547 0.31026,0.54548 0.39687,0.44286 0.39688,0.44287 0.91581,0.46621 0.91581,0.46621 1.33315,0.21208 1.33315,0.21207 2.07965,-0.12411 2.07964,-0.12411 z m 38.89951,-1.16797 0.31708,-1.05834 0.18782,-0.008 0.18782,-0.008 0.50092,-0.37919 0.50092,-0.3792 -0.78777,-0.73687 -0.78776,-0.73686 -0.1793,-1.12448 -0.17931,-1.12448 h -0.35891 -0.35891 l -0.15079,1.12448 -0.1508,1.12448 -0.85093,0.76037 -0.85093,0.76037 0.44177,0.24723 0.44178,0.24724 0.52511,0.56363 0.52511,0.56364 v 0.43518 0.43518 l 0.17639,0.17639 0.17639,0.17639 h 0.17861 0.1786 z m -100.613457,-17.16717 1.087571,-0.21078 1.150621,-0.77277 1.150621,-0.77276 0.599062,-1.71691 0.599063,-1.7169 0.007,-1.93336 0.007,-1.93336 -0.292094,-1.16001 -0.292095,-1.16001 -0.897582,-1.04863 -0.897582,-1.04862 -1.238706,-0.42207 -1.238706,-0.42207 -2.400263,0.001 -2.400263,10e-4 -0.957165,0.26588 -0.957165,0.26587 -0.87424,0.59255 -0.874241,0.59254 -0.451778,0.81238 -0.451779,0.81239 -0.321637,1.90687 -0.321637,1.90688 0.187353,1.61424 0.187352,1.61425 0.505679,1.14317 0.50568,1.14317 0.721164,0.4964 0.721164,0.4964 0.79375,0.29594 0.79375,0.29594 0.529167,0.11644 0.529166,0.11644 1.852084,0.0192 1.852083,0.0192 z m 21.699458,-0.50678 1.091197,-0.5591 0.675079,-0.80228 0.67508,-0.80229 0.317527,-1.41886 0.317526,-1.41886 -0.108979,-2.48681 -0.108981,-2.48681 -0.655233,-1.1873 -0.655233,-1.1873 -1.187298,-0.65811 -1.187299,-0.65812 -2.696665,-0.10226 -2.696666,-0.10225 -1.484732,0.467 -1.484733,0.46701 -0.876604,1.02411 -0.876603,1.02412 -0.299811,1.49286 -0.29981,1.49287 v 1.76082 1.76083 l 0.440183,1.3039 0.440183,1.3039 0.419712,0.58656 0.419713,0.58657 0.926042,0.4541 0.926042,0.45411 0.926041,0.20193 0.926042,0.20192 2.513541,-0.0766 2.513542,-0.0766 z m 20.129999,0.069 1.11285,-0.45788 0.65255,-0.98606 0.65254,-0.98606 0.31921,-1.62252 0.31921,-1.62252 -0.1205,-2.0522 -0.1205,-2.05221 -0.50025,-1.05833 -0.50024,-1.05833 -0.40553,-0.4294 -0.40554,-0.42939 -0.92604,-0.48318 -0.92604,-0.48319 -2.6777,-0.10835 -2.6777,-0.10835 -1.4442,0.41984 -1.44421,0.41985 -0.82972,0.79293 -0.82973,0.79292 -0.43492,1.49609 -0.43492,1.49608 0.12101,2.6777 0.12101,2.6777 0.44705,0.8414 0.44704,0.8414 0.91023,0.79919 0.91024,0.7992 0.99784,0.16701 0.99785,0.16701 0.26458,0.10663 0.26458,0.10663 2.51354,-0.10286 2.51355,-0.10286 z m 20.05701,-0.0823 1.06154,-0.52057 0.45285,-0.50039 0.45284,-0.50038 0.3808,-1.07931 0.3808,-1.0793 0.18023,-1.44248 0.18023,-1.44249 -0.31405,-2.09528 -0.31404,-2.09529 -0.65222,-0.86234 -0.65222,-0.86234 -1.10915,-0.59287 -1.10915,-0.59287 h -3.30729 -3.30729 l -1.16719,0.66146 -1.16719,0.66146 -0.47916,0.66146 -0.47915,0.66146 -0.40418,1.57694 -0.40418,1.57694 v 1.41475 1.41475 l 0.3126,1.24164 0.3126,1.24164 0.49449,0.83821 0.49449,0.8382 0.70872,0.46438 0.70872,0.46437 1.06388,0.35215 1.06388,0.35214 2.77812,-0.11774 2.77813,-0.11773 z m 62.98692,-2.6236 0.28388,-0.19439 0.14438,-0.39688 0.14437,-0.39687 -0.22756,-0.61224 -0.22755,-0.61225 -0.86216,0.0831 -0.86216,0.0831 -0.0859,0.74995 -0.0859,0.74995 0.14372,0.37453 0.14372,0.37452 0.60361,-0.004 0.60362,-0.004 z m -11.06568,-7.8797 0.3177,-1.99677 0.42819,-0.90236 0.4282,-0.90235 0.67301,-0.67302 0.67302,-0.67302 1.02199,-0.30619 1.02198,-0.3062 v -0.32555 -0.32555 l -0.89104,-0.16716 -0.89103,-0.16716 -0.95196,-0.92452 -0.95196,-0.92453 -0.401,-1.35034 -0.40101,-1.35034 -0.17269,-1.30182 -0.1727,-1.30182 -0.28045,0.0935 -0.28046,0.0935 -0.31161,1.83498 -0.3116,1.83498 -0.39673,0.92604 -0.39673,0.92604 -0.67047,0.61787 -0.67047,0.61786 -1.00801,0.34654 -1.00802,0.34654 -0.0894,0.26827 -0.0894,0.26826 0.84547,0.1857 0.84546,0.18569 1.13425,1.04551 1.13424,1.04551 0.44163,2.03404 0.44164,2.03404 0.11125,0.59532 0.11126,0.59531 h 0.19989 0.1999 z m -113.100994,-8.07747 1.645299,-0.54924 0.690936,-0.79884 0.690936,-0.79885 0.316537,-0.96702 0.316537,-0.96702 0.15205,-2.14674 0.152051,-2.14673 -0.332586,-1.42514 -0.332586,-1.42514 -0.665947,-0.89134 -0.665947,-0.89133 -1.175054,-0.51979 -1.175054,-0.51978 -1.923485,-0.14547 -1.923485,-0.14547 -1.979518,0.4404 -1.979519,0.4404 -0.817831,0.85161 -0.817831,0.8516 -0.48281,1.19063 -0.48281,1.19062 0.0055,2.64584 0.0055,2.64583 0.332844,0.95305 0.332844,0.95305 0.730591,0.81831 0.730591,0.81832 0.783161,0.31558 0.783161,0.31557 0.926042,0.19774 0.926042,0.19774 1.794283,0.0304 1.794284,0.0304 z m 20.238887,0.0259 1.514744,-0.52335 0.847253,-0.96132 0.847252,-0.96131 0.309472,-1.49072 0.309476,-1.49072 -0.122927,-2.55276 -0.122924,-2.55276 -0.699332,-1.19331 -0.699332,-1.19332 -1.143739,-0.55368 -1.143739,-0.55367 -2.002554,-0.16928 -2.002555,-0.16928 -1.777098,0.33532 -1.777098,0.33531 -1.099619,0.83739 -1.099618,0.83738 -0.355308,1.04619 -0.355307,1.0462 -0.144749,2.17865 -0.144749,2.17866 0.344204,1.62197 0.344205,1.62196 0.650389,0.77295 0.650388,0.77294 0.782448,0.40462 0.782448,0.40462 1.104265,0.21834 1.104265,0.21835 1.792548,0.029 1.792547,0.029 z m 21.007157,-0.311 1.12461,-0.62086 0.59018,-0.87621 0.59018,-0.87622 0.30977,-1.49216 0.30977,-1.49215 -0.1088,-2.27562 -0.1088,-2.27561 -0.64862,-1.30914 -0.64862,-1.30914 -1.27642,-0.60958 -1.27642,-0.60958 -2.16835,-0.15302 -2.16835,-0.15302 -1.45002,0.3098 -1.45002,0.3098 -0.98696,0.65154 -0.98696,0.65153 -0.56701,1.11141 -0.567,1.11142 -0.13471,2.15923 -0.13471,2.15924 0.18469,1.4782 0.18469,1.4782 0.57794,0.84892 0.57794,0.84892 0.67828,0.50218 0.67827,0.50218 1.3061,0.37628 1.3061,0.37629 2.56932,-0.10099 2.56932,-0.10099 z m 19.91484,0.0128 1.30725,-0.63366 0.48998,-0.67354 0.48999,-0.67355 0.37615,-1.57541 0.37615,-1.57542 0.005,-1.5875 0.005,-1.5875 -0.36175,-1.53745 -0.36175,-1.53746 -0.6263,-0.67724 -0.6263,-0.67725 -1.19063,-0.54409 -1.19062,-0.5441 -3.04271,-0.006 -3.04271,-0.006 -0.92604,0.44564 -0.92604,0.44565 -0.59414,0.50886 -0.59413,0.50887 -0.56479,1.28146 -0.5648,1.28146 -0.12839,1.99099 -0.12839,1.99099 0.42324,1.6521 0.42325,1.65209 0.56342,0.76206 0.56342,0.76207 1.0008,0.4513 1.00079,0.45129 0.88736,0.22627 0.88736,0.22627 2.38125,-0.0834 2.38125,-0.0834 z m 37.4716,-7.65443 0.51177,-0.27389 v -0.63325 -0.63325 l -0.41578,-0.41577 -0.41577,-0.41578 h -0.61016 -0.61016 l -0.25591,0.33073 -0.25591,0.33073 -0.1534,0.43265 -0.15341,0.43264 0.39192,0.55954 0.39192,0.55955 h 0.53156 0.53155 z m 26.94047,-10.14359 0.36724,-0.44036 -0.40926,-0.45805 -0.40927,-0.45806 -0.0903,-0.60579 -0.0903,-0.6058 h -0.26458 -0.26458 l -0.0903,0.6058 -0.0903,0.60579 -0.4021,0.45013 -0.40209,0.45013 0.55851,0.71003 0.55851,0.71003 0.0215,0.42734 0.0215,0.42734 0.30924,-0.68909 0.30924,-0.68908 z m -85.19422,-0.76994 1.16261,-0.32195 0.88371,-0.88215 0.88371,-0.88214 0.33493,-1.10223 0.33494,-1.10223 -0.007,-2.93136 -0.007,-2.93136 -0.65994,-1.30197 -0.65993,-1.30197 -1.22505,-0.61081 -1.22505,-0.6108 -2.34561,-0.15197 -2.34562,-0.15196 -1.4508,0.31107 -1.4508,0.31106 -0.84579,0.57945 -0.8458,0.57945 -0.60311,1.06288 -0.60311,1.06288 -0.0996,2.78143 -0.0996,2.78143 0.29114,1.08121 0.29114,1.08121 0.59587,0.87684 0.59588,0.87684 0.98253,0.50697 0.98253,0.50696 1.79559,0.21849 1.7956,0.21849 1.19062,-0.1159 1.19063,-0.11591 z m -40.141534,-0.0693 1.199708,-0.40878 0.789954,-0.77233 0.789954,-0.77233 0.474146,-1.75163 0.474147,-1.75164 -0.130996,-2.29748 -0.130997,-2.29748 -0.554286,-1.08649 -0.554286,-1.0865 -0.802706,-0.67543 -0.802706,-0.67543 -1.524,-0.3166 -1.524,-0.31661 -2.248958,0.13812 -2.248958,0.13811 -0.79375,0.35857 -0.79375,0.35857 -0.700462,0.47472 -0.700462,0.47471 -0.603223,1.37642 -0.603223,1.37642 -0.01905,2.77812 -0.01905,2.77813 0.626048,1.31966 0.626048,1.31966 0.559687,0.40013 0.559687,0.40013 1.063041,0.43558 1.063041,0.43559 2.664847,0.0274 2.664846,0.0274 z m 20.088489,0.007 1.179864,-0.40202 0.720858,-0.66842 0.720859,-0.66842 0.448685,-0.98008 0.448685,-0.98008 0.01232,-3.30729 0.01232,-3.30729 -0.566648,-1.05834 -0.566649,-1.05833 -0.547995,-0.49559 -0.547994,-0.49559 -1.530681,-0.36017 -1.53068,-0.36018 -1.730348,-0.004 -1.730349,-0.004 -1.576943,0.40096 -1.576943,0.40097 -0.942571,0.9908 -0.942572,0.99081 -0.351235,1.65509 -0.351234,1.6551 0.137273,2.20033 0.137274,2.20032 0.518221,1.16896 0.518222,1.16895 0.472911,0.39687 0.472911,0.39688 1.223733,0.44251 1.223734,0.44252 2.532555,0.0205 2.532555,0.0205 z m 40.245745,-0.01 1.20894,-0.41193 0.82448,-0.90604 0.82449,-0.90605 0.39104,-1.65859 0.39105,-1.65858 -2.2e-4,-1.45521 -2.3e-4,-1.45521 -0.36175,-1.53746 -0.36175,-1.53746 -0.6263,-0.6711 -0.6263,-0.6711 -1.05834,-0.55653 -1.05833,-0.55653 -2.91042,-0.0113 -2.91041,-0.0113 -1.18416,0.35527 -1.18416,0.35527 -0.80271,0.85112 -0.8027,0.85112 -0.46053,1.46097 -0.46054,1.46097 v 1.78811 1.78811 l 0.42095,1.44799 0.42094,1.44798 0.79707,0.90782 0.79708,0.90782 1.22938,0.37847 1.22938,0.37846 2.53255,0.0184 2.53256,0.0184 z m 32.06429,-8.12088 0.13004,-0.8599 0.14077,-1.19062 0.14077,-1.19063 0.28354,-0.99491 0.28354,-0.99491 0.97899,-1.02652 0.979,-1.02653 1.12448,-0.33555 1.12448,-0.33555 v -0.31311 -0.31312 l -1.0609,-0.31785 -1.06091,-0.31786 -0.91638,-0.91637 -0.91638,-0.91638 -0.51891,-1.78421 -0.51891,-1.78421 -0.16868,-1.52135 -0.16867,-1.52136 h -0.24555 -0.24554 v 0.11315 0.11314 l -0.27188,2.06967 -0.27187,2.06967 -0.42724,1.16577 -0.42723,1.16577 -0.55766,0.64601 -0.55766,0.64601 -0.98165,0.50332 -0.98165,0.50332 h -0.5397 -0.53971 v 0.33912 0.33911 l 1.17806,0.34784 1.17806,0.34784 0.79523,0.75997 0.79524,0.75997 0.38229,0.73927 0.38229,0.73927 0.27997,1.58412 0.27997,1.58412 0.15456,0.99219 0.15456,0.99218 h 0.2406 0.24061 z m -38.24141,-20.58849 1.3136,-0.28172 0.88223,-0.45578 0.88224,-0.45579 0.79375,-0.51927 0.79375,-0.51926 0.88544,-0.92605 0.88544,-0.92604 0.83435,-1.71979 0.83435,-1.71979 V 100.34584 88.042712 l -0.82193,-1.719792 -0.82192,-1.719792 -1.25677,-1.22776 -1.25677,-1.22776 -1.36089,-0.686479 -1.36089,-0.686479 -1.42517,-0.268573 -1.42518,-0.268573 H 103.02175 77.309586 l -1.509098,0.278972 -1.509099,0.278972 -1.571506,0.804314 -1.571507,0.804314 -1.092734,1.185477 -1.092734,1.185477 -0.7039,1.501549 -0.703899,1.501549 -0.07399,12.012791 -0.07399,12.012791 0.447241,1.34867 0.44724,1.34866 0.512004,0.92605 0.512004,0.92604 1.183985,1.1295 1.183984,1.12951 1.303122,0.66034 1.303122,0.66034 0.993266,0.2341 0.993266,0.23409 26.379167,0.0266 26.37916,0.0266 z m -68.570432,-33.915676 0.542698,-0.595312 0.30431,-0.951643 0.304311,-0.951642 0.75018,-1.165024 0.75018,-1.165024 0.499453,-0.538269 0.499452,-0.538268 1.386932,-1.004056 1.386931,-1.004055 0.23342,-0.838926 0.23342,-0.838926 -0.327587,-0.529167 -0.327587,-0.529167 -0.925651,-0.07995 -0.925652,-0.07995 -1.538709,0.728544 -1.538709,0.728545 -1.233414,1.246463 -1.233415,1.246463 -0.758978,1.544524 -0.758978,1.544524 -0.106135,1.624668 -0.106134,1.624668 0.558144,0.558144 0.558144,0.558145 h 0.615338 0.615338 z"
         id="path3" /><path
         style="fill:#693c89"
         d="m 65.447895,223.616 -1.578047,-0.23405 -1.263425,-0.41965 -1.263425,-0.41964 -1.921028,-1.2877 -1.921027,-1.28771 -0.402892,-0.34561 -0.402891,-0.3456 -0.959699,-1.19063 -0.959698,-1.19062 -0.795182,-1.5875 -0.795182,-1.5875 -0.430861,-1.5875 -0.43086,-1.5875 0.07509,-64.55833 0.07509,-64.558331 0.487458,-1.322917 0.487458,-1.322917 1.175627,-1.903217 1.175627,-1.903218 1.624991,-1.35781 1.624991,-1.35781 1.537853,-0.776305 1.537852,-0.776306 1.656363,-0.390526 1.656362,-0.390527 39.44674,-0.0039 39.44674,-0.0039 2.04362,0.52267 2.04361,0.52267 1.63673,0.855863 1.63672,0.855863 1.85591,1.862613 1.85591,1.862612 1.09136,2.116667 1.09136,2.116667 0.29388,1.402085 0.29388,1.402086 v 63.271628 63.27163 l -0.4281,1.7367 -0.42809,1.73669 -0.87516,1.76131 -0.87516,1.76131 -0.61304,0.75224 -0.61305,0.75223 -1.24772,1.21823 -1.24772,1.21822 -1.82132,0.95708 -1.82131,0.95707 -1.5631,0.46522 -1.56311,0.46521 -39.02604,0.0434 -39.02604,0.0434 z m 11.633446,-18.50787 1.300948,-0.66949 0.671826,-1.30771 0.671827,-1.3077 -0.0067,-3.57672 -0.0067,-3.57672 -0.597406,-0.96288 -0.597407,-0.96288 -1.115637,-0.73871 -1.115637,-0.73871 -2.248958,-0.18539 -2.248958,-0.1854 -1.414204,0.22356 -1.414204,0.22356 -0.950049,0.4728 -0.95005,0.4728 -0.745116,0.93566 -0.745115,0.93565 -0.445746,2.05405 -0.445745,2.05405 0.341909,2.03738 0.34191,2.03738 0.345313,0.66145 0.345313,0.66146 0.751226,0.70516 0.751225,0.70516 1.322916,0.41493 1.322917,0.41492 2.789725,-0.0641 2.789725,-0.0641 z m 19.048766,0.51441 1.058334,-0.28909 0.860174,-0.64915 0.860174,-0.64916 0.407782,-0.78856 0.407783,-0.78857 0.299706,-2.05626 0.2997,-2.05627 -0.346303,-2.02452 -0.346305,-2.02452 -0.483423,-0.79492 -0.483423,-0.79493 -1.09964,-0.7277 -1.09964,-0.72771 -2.416418,-0.15207 -2.416417,-0.15206 -1.376937,0.20949 -1.376937,0.2095 -0.884183,0.52168 -0.884184,0.52168 -0.565837,0.76533 -0.565837,0.76534 -0.449639,1.5467 -0.44964,1.54671 0.144658,2.42467 0.144658,2.42468 0.451866,0.89139 0.451866,0.8914 0.43049,0.49011 0.43049,0.49011 0.794375,0.41405 0.794374,0.41405 0.79375,0.19324 0.79375,0.19323 2.38125,0.0256 2.38125,0.0256 z m 19.970733,0.006 1.18532,-0.27312 0.89328,-0.68134 0.89327,-0.68133 0.35838,-0.85773 0.35839,-0.85773 0.27307,-1.70938 0.27308,-1.70939 -0.27103,-2.22665 -0.27103,-2.22665 -0.7229,-1.04565 -0.72289,-1.04564 -0.92238,-0.54063 -0.92238,-0.54063 -3.01677,-0.0972 -3.01678,-0.0972 -1.08426,0.32021 -1.08427,0.32021 -0.85916,0.64857 -0.85916,0.64857 -0.5706,1.24386 -0.5706,1.24387 -0.12339,1.87146 -0.12338,1.87147 0.32513,1.9276 0.32513,1.92761 1.01828,1.01827 1.01827,1.01828 1.26807,0.38974 1.26808,0.38975 2.24895,0.012 2.24896,0.012 z m 21.30427,-0.5077 1.32291,-0.66146 0.66146,-1.32291 0.66146,-1.32292 0.0932,-2.64583 0.0932,-2.64584 -0.31132,-1.39213 -0.31132,-1.39212 -0.63569,-0.75548 -0.63569,-0.75547 -1.30771,-0.56257 -1.30771,-0.56256 -2.601,-0.0298 -2.601,-0.0298 -0.79375,0.19432 -0.79375,0.19433 -0.93059,0.50917 -0.93058,0.50917 -0.60347,0.88071 -0.60348,0.88071 -0.29494,1.02342 -0.29494,1.02342 -0.0194,2.24896 -0.0194,2.24896 0.34561,1.19062 0.34562,1.19063 0.58532,0.66145 0.58531,0.66146 0.46922,0.37538 0.46923,0.37538 1.242,0.34552 1.24201,0.34552 2.77812,-0.0594 2.77813,-0.0594 z m -62.556513,-18.11524 1.472655,-0.16692 0.811802,-0.49368 0.811803,-0.49369 0.666312,-0.88242 0.666313,-0.88242 0.316017,-1.07028 0.316018,-1.07028 -0.09179,-2.76618 -0.09179,-2.76618 -0.529167,-1.04134 -0.529167,-1.04133 -0.926806,-0.73796 -0.926807,-0.73795 -2.07112,-0.32199 -2.071121,-0.32199 -2.081648,0.30341 -2.081648,0.3034 -1.064827,0.67219 -1.064827,0.6722 -0.575337,1.25797 -0.575336,1.25797 -0.270782,1.86631 -0.270783,1.86631 0.448388,1.78504 0.448389,1.78504 0.589008,0.90332 0.589008,0.90332 1.077215,0.55585 1.077215,0.55585 1.833201,0.20933 1.833202,0.20933 0.396875,-0.0727 0.396875,-0.0727 z m 20.540997,-0.009 1.534263,-0.39697 1.028011,-0.72751 1.02801,-0.72752 0.542628,-1.32292 0.542624,-1.32291 0.006,-2.91042 0.006,-2.91042 -0.646293,-1.2859 -0.64629,-1.2859 -0.634551,-0.49914 -0.634552,-0.49914 -1.089938,-0.31243 -1.089939,-0.31243 -2.513541,-3e-5 -2.513542,-4e-5 -1.346337,0.45094 -1.346337,0.45093 -0.666993,0.72053 -0.666992,0.72053 -0.463831,0.92604 -0.46383,0.92604 -0.137965,2.58102 -0.137965,2.58102 0.467654,1.25544 0.467655,1.25544 0.63238,0.85045 0.632381,0.85046 0.853632,0.39024 0.853632,0.39025 1.190625,0.25232 1.190625,0.25232 1.243861,0.0283 1.243862,0.0283 z m 20.118726,0.0241 1.65113,-0.35426 0.95663,-0.72966 0.95663,-0.72965 0.39736,-0.95101 0.39735,-0.95101 0.22265,-1.57516 0.22265,-1.57517 -0.26668,-2.12682 -0.26668,-2.12682 -0.52779,-0.93907 -0.52779,-0.93907 -0.85136,-0.58336 -0.85137,-0.58337 -2.04495,-0.30415 -2.04495,-0.30415 -2.01754,0.30007 -2.01755,0.30008 -0.82673,0.39922 -0.82672,0.39922 -0.72429,1.02417 -0.72429,1.02418 -0.30173,1.40692 -0.30173,1.40692 0.13407,2.14897 0.13407,2.14897 0.52978,1.19765 0.52977,1.19765 0.99385,0.75804 0.99385,0.75804 1.74957,0.31237 1.74958,0.31237 0.92604,0.0161 0.92604,0.0161 z m 19.84096,5.8e-4 1.64835,-0.35367 0.72784,-0.47691 0.72784,-0.4769 0.45728,-0.54919 0.45728,-0.54919 0.40768,-1.17161 0.40768,-1.17161 v -2.33032 -2.33032 l -0.33073,-1.25081 -0.33073,-1.25081 -0.92604,-0.97446 -0.92604,-0.97445 -1.19063,-0.34039 -1.19062,-0.34039 -2.66944,0.0171 -2.66944,0.0171 -1.16702,0.5251 -1.16702,0.5251 -0.59425,0.5284 -0.59425,0.5284 -0.57303,1.2928 -0.57303,1.2928 -0.0233,2.51354 -0.0234,2.51354 0.48341,1.19063 0.4834,1.19062 0.70722,0.75123 0.70722,0.75122 0.73454,0.38364 0.73454,0.38363 1.51442,0.22194 1.51442,0.22194 0.79375,0.023 0.79375,0.023 z m -59.366852,-18.96363 1.018986,-0.28294 1.137373,-1.13737 1.137373,-1.13738 0.326949,-1.46096 0.326949,-1.46096 -0.124192,-2.79241 -0.124192,-2.79241 -0.724753,-1.09518 -0.724754,-1.09517 -1.404292,-0.64291 -1.404292,-0.6429 -2.514197,-0.0136 -2.514198,-0.0136 -1.023165,0.27989 -1.023164,0.27988 -0.862314,0.52999 -0.862314,0.52999 -0.525967,0.86231 -0.525966,0.86231 -0.427706,1.45521 -0.427705,1.45521 0.154554,1.85208 0.154554,1.85209 0.415391,1.21527 0.415391,1.21526 0.899933,0.87225 0.899933,0.87225 1.272149,0.34202 1.27215,0.34202 2.38125,0.0164 2.38125,0.0164 z m 20.346654,-0.0916 0.992725,-0.35426 0.903016,-0.68877 0.903015,-0.68876 0.47722,-1.39275 0.477222,-1.39275 0.002,-2.51354 0.002,-2.51355 -0.350069,-1.18103 -0.350065,-1.18103 -0.976353,-0.97635 -0.976353,-0.97636 -1.080781,-0.29102 -1.080781,-0.29103 -1.820044,-0.044 -1.820043,-0.044 -1.372908,0.19989 -1.372909,0.1999 -1.216261,0.77133 -1.216262,0.77133 -0.578826,1.25658 -0.578826,1.25659 -0.007,3.04271 -0.007,3.0427 0.627367,1.27423 0.627366,1.27423 1.022468,0.67664 1.022468,0.67664 0.863707,0.20486 0.863707,0.20486 2.513542,0.0155 2.513541,0.0155 z m 21.096658,-0.42373 1.1873,-0.66063 0.65941,-1.1873 0.65942,-1.1873 0.10249,-2.89401 0.10248,-2.89401 -0.30718,-1.33932 -0.30718,-1.33933 -0.48072,-0.57915 -0.48072,-0.57915 -0.98986,-0.55597 -0.98987,-0.55597 -1.82508,-0.22917 -1.82508,-0.22916 -1.89958,0.23851 -1.89958,0.23852 -0.94469,0.48822 -0.94469,0.48821 -0.70996,1.03443 -0.70995,1.03443 -0.28223,1.10935 -0.28224,1.10936 v 1.84702 1.84703 l 0.32477,1.40925 0.32477,1.40924 1.07397,1.07498 1.07397,1.07497 1.18095,0.29581 1.18095,0.29581 2.91041,-0.052 2.91042,-0.052 z m 19.84707,0.14888 0.92605,-0.48436 0.60074,-0.68842 0.60075,-0.68841 0.39144,-1.3048 0.39144,-1.30479 v -2.56454 -2.56455 l -0.40384,-1.14461 -0.40384,-1.14461 -0.45606,-0.50431 -0.45605,-0.50431 -1.05833,-0.54711 -1.05834,-0.54712 -2.95434,-0.11863 -2.95434,-0.11863 -1.17667,0.40093 -1.17667,0.40093 -0.59268,0.49141 -0.59268,0.4914 -0.69493,1.05834 -0.69492,1.05833 -0.097,3.33389 -0.097,3.33389 0.55408,1.08609 0.55409,1.0861 0.91635,0.73117 0.91635,0.73118 1.00251,0.32687 1.00252,0.32688 3.0427,-0.0719 3.04271,-0.0719 z m -60.454077,-18.89069 1.061541,-0.51683 0.4409,-0.48725 0.440901,-0.48725 0.548079,-1.27871 0.548079,-1.27871 -0.0015,-2.69004 -0.0015,-2.69004 -0.291969,-1.05834 -0.291969,-1.05833 -0.989216,-0.97309 -0.989216,-0.9731 -1.535608,-0.44641 -1.535607,-0.44641 -2.274961,0.1101 -2.274961,0.1101 -1.57201,0.78024 -1.57201,0.78024 -0.598396,1.19062 -0.598397,1.19063 -0.329185,1.65006 -0.329186,1.65006 0.341499,2.03237 0.3415,2.03238 0.636627,1.00848 0.636628,1.00849 1.12459,0.58104 1.12459,0.58104 0.926042,0.20583 0.926042,0.20583 2.513541,-0.10809 2.513542,-0.10809 z m 20.209419,-0.0218 1.055675,-0.53857 0.644039,-0.86234 0.64404,-0.86233 0.355354,-1.05834 0.35535,-1.05833 0.005,-2.38125 0.005,-2.38125 -0.360577,-1.25216 -0.360573,-1.25216 -0.758838,-0.79405 -0.758838,-0.79405 -0.994005,-0.42571 -0.994005,-0.42571 -2.199231,-0.14609 -2.19923,-0.14608 -1.383472,0.33189 -1.383472,0.33189 -1.047506,0.70071 -1.047505,0.70072 -0.648623,1.30704 -0.648622,1.30704 -0.110825,2.318 -0.110825,2.31799 0.489536,1.63426 0.489535,1.63425 0.872472,0.82293 0.872471,0.82294 1.514107,0.46113 1.514107,0.46114 2.567019,-0.11748 2.567018,-0.11747 z m 18.526138,0.49503 1.32626,-0.28443 0.86957,-0.58571 0.86957,-0.5857 0.6155,-1.1149 0.6155,-1.1149 0.23102,-1.63435 0.23101,-1.63434 -0.26427,-2.10756 -0.26426,-2.10756 -0.37431,-0.72383 -0.37431,-0.72384 -0.80018,-0.6733 -0.80018,-0.67331 -1.43286,-0.41654 -1.43285,-0.41655 h -1.82949 -1.82948 l -1.43709,0.42397 -1.43708,0.42396 -1.09752,1.14004 -1.09752,1.14005 -0.29154,1.35943 -0.29155,1.35943 0.003,1.77292 0.003,1.77291 0.3795,1.42587 0.37949,1.42587 0.74185,0.77971 0.74184,0.77971 0.52766,0.28572 0.52766,0.28572 1.19213,0.32931 1.19213,0.32932 1.64063,0.0237 1.64062,0.0237 z m 21.68771,-0.58779 1.21735,-0.58298 0.59459,-0.89492 0.59459,-0.89492 0.26587,-0.95717 0.26588,-0.95716 0.003,-2.51354 0.003,-2.51354 -0.46017,-1.28379 -0.46016,-1.28378 -0.84586,-0.74267 -0.84586,-0.74267 -1.53955,-0.45084 -1.53956,-0.45084 -2.33418,0.13006 -2.33418,0.13006 -1.50228,0.75973 -1.50228,0.75974 -0.79092,1.58376 -0.79093,1.58376 -0.003,2.64957 -0.003,2.64957 0.38065,0.92604 0.38065,0.92605 0.62472,0.836 0.62472,0.836 0.91741,0.43534 0.91742,0.43535 1.11992,0.23761 1.11993,0.23761 2.35248,-0.13222 2.35248,-0.13223 z m -6.82665,-28.38721 1.84596,-0.41986 1.1513,-0.64347 1.15131,-0.64348 1.19989,-1.28279 1.1999,-1.28278 0.65209,-1.29191 0.65208,-1.2919 0.31788,-1.45521 0.31787,-1.45521 -0.0956,-10.980204 -0.0956,-10.980208 -0.65367,-1.713549 -0.65366,-1.713548 -1.62286,-1.660432 -1.62286,-1.660432 -1.43921,-0.658891 -1.43921,-0.65889 -1.40581,-0.266608 -1.40582,-0.266608 H 102.76941 77.069472 l -1.908423,0.528852 -1.908424,0.528851 -1.324887,0.815211 -1.324886,0.81521 -0.909704,1.062784 -0.909703,1.062784 -0.74646,1.495758 -0.746459,1.495758 v 12.435412 12.43542 l 0.46302,0.90055 0.463021,0.90054 v 0.35623 0.35622 h 0.264583 0.264584 v 0.28326 0.28326 l 1.077102,1.27738 1.077102,1.27738 1.610346,0.85831 1.610347,0.8583 1.347447,0.32993 1.347447,0.32992 25.876935,0.0293 25.87694,0.0293 z m -68.757653,-33.69843 0.656242,-0.5162 0.477216,-1.269737 0.477216,-1.269738 0.869367,-1.322917 0.869367,-1.322916 1.348102,-1.026713 1.348102,-1.026713 0.521212,-0.662614 0.521213,-0.662614 v -0.625777 -0.625777 l -0.558321,-0.558321 -0.558321,-0.55832 -1.058368,0.169239 -1.058369,0.16924 -1.227581,0.676265 -1.227582,0.676264 -1.27052,1.234171 -1.270521,1.23417 -0.779493,1.5875 -0.779493,1.5875 -0.16619,1.238009 -0.166191,1.23801 0.174903,0.696868 0.174903,0.696869 0.850676,0.36987 0.850677,0.369869 0.162756,0.01036 0.162756,0.01036 z"
         id="path2" /><path
         style="fill:#271163"
         d="m 65.041567,223.37859 -1.455208,-0.20191 -1.490481,-0.56872 -1.49048,-0.56871 -1.854533,-1.30239 -1.854533,-1.30239 -0.916841,-1.13755 -0.916842,-1.13755 -0.677556,-1.19062 -0.677557,-1.19063 -0.550692,-1.69734 -0.550693,-1.69734 0.01238,-0.94849 0.01238,-0.94849 0.487969,1.2482 0.487968,1.24821 0.969333,1.32049 0.969333,1.3205 1.334147,1.06226 1.334147,1.06226 1.363363,0.63814 1.363363,0.63814 1.904313,0.42725 1.904314,0.42725 38.180059,-0.003 38.18006,-0.003 1.35682,-0.36128 1.35681,-0.36128 1.75879,-0.86585 1.75879,-0.86584 1.6181,-1.72976 1.61809,-1.72975 0.61165,-1.33946 0.61164,-1.33945 0.40934,-1.57695 0.40935,-1.57694 V 144.65028 82.174234 l -0.52339,-2.046416 -0.52338,-2.046416 -0.73339,-1.365846 -0.73339,-1.365846 -1.63266,-1.641064 -1.63267,-1.641064 -1.13099,-0.576989 -1.13099,-0.57699 -0.94051,-0.34649 -0.94051,-0.346489 1.19063,-0.0155 1.19062,-0.0155 1.45521,0.386752 1.45521,0.386752 1.95649,0.966388 1.95649,0.966389 1.64,1.639998 1.64,1.639998 0.94931,1.897565 0.94932,1.897566 0.42254,1.919176 0.42255,1.919176 -0.0736,63.896876 -0.0736,63.89687 -0.58885,1.54401 -0.58886,1.54401 -0.85046,1.4987 -0.85046,1.4987 -1.49906,1.47739 -1.49905,1.47739 -1.29496,0.73567 -1.29497,0.73567 -1.85208,0.68497 -1.85208,0.68498 -39.55521,0.0479 -39.555206,0.0479 z m 8.660679,-14.01392 -0.996612,-0.19323 -1.384637,-0.95842 -1.384638,-0.95843 -0.771583,-0.72149 -0.771582,-0.72149 0.314184,-0.10473 0.314184,-0.10473 0.82761,0.28851 0.827609,0.2885 2.275622,-0.003 2.275622,-0.003 1.322917,-0.62385 1.322916,-0.62386 0.582685,-0.63394 0.582684,-0.63394 0.461725,-1.05472 0.461724,-1.05472 0.0051,-3.37319 0.0051,-3.37318 1.286359,1.25652 1.286358,1.25651 0.430542,0.79375 0.430541,0.79375 -0.0029,3.04271 -0.0029,3.04271 -0.51446,1.42745 -0.514459,1.42745 -0.954788,0.60274 -0.954788,0.60273 -1.541275,0.28492 -1.541275,0.28492 -1.340469,-0.0304 -1.34047,-0.0304 z m 20.108333,0.0179 -0.996612,-0.21114 -1.396009,-0.96147 -1.396008,-0.96146 -0.78238,-0.837 -0.782379,-0.837 0.661458,0.18884 0.661459,0.18883 2.558101,0.14782 2.558101,0.14783 1.353324,-0.48665 1.353324,-0.48664 0.895078,-0.81986 0.895078,-0.81986 0.442623,-1.52257 0.442623,-1.52258 -0.0898,-2.7618 -0.0897,-2.7618 0.14821,3e-4 0.14821,2.9e-4 0.88033,0.8599 0.88034,0.8599 0.68848,0.90181 0.68848,0.90182 0.0989,2.88842 0.0989,2.88842 -0.43844,1.36914 -0.43845,1.36914 -0.48243,0.58125 -0.48242,0.58125 -1.05037,0.54749 -1.050374,0.54748 -2.490478,0.11551 -2.490477,0.11552 z m 20.125761,0.001 -0.97919,-0.20696 -1.00519,-0.67466 -1.00519,-0.67466 -1.05833,-0.93018 -1.05833,-0.93017 0.19673,-0.20111 0.19673,-0.20112 1.02459,0.30698 1.02459,0.30697 1.95368,-0.004 1.95368,-0.004 1.16995,-0.40739 1.16996,-0.40739 0.72556,-0.51665 0.72557,-0.51664 0.61802,-1.25493 0.61802,-1.25492 -0.0132,-3.50975 -0.0132,-3.50974 1.30043,1.26079 1.30043,1.26078 0.49286,1.05834 0.49286,1.05833 0.003,2.38125 0.003,2.38125 -0.36355,1.36542 -0.36355,1.36542 -0.4932,0.67282 -0.49321,0.67283 -1.20923,0.52834 -1.20923,0.52835 -2.36265,0.13153 -2.36264,0.13152 z m 19.95922,-0.007 -0.8637,-0.22257 -0.98838,-0.65667 -0.98837,-0.65668 -1.12813,-0.94559 -1.12813,-0.94559 0.24603,-0.15206 0.24603,-0.15205 0.70088,0.26648 0.70089,0.26647 h 2.34209 2.34209 l 1.27871,-0.54698 1.2787,-0.54699 0.59007,-0.55254 0.59007,-0.55255 0.58123,-1.08328 0.58122,-1.08328 0.0193,-3.47202 0.0193,-3.47201 0.26458,0.11792 0.26459,0.11792 1.19062,1.40385 1.19063,1.40384 0.31579,0.89192 0.3158,0.89191 0.0149,2.2316 0.0149,2.2316 -0.41597,1.47257 -0.41597,1.47257 -0.47496,0.58125 -0.47495,0.58125 -1.08971,0.56799 -1.08972,0.568 -2.58342,0.0981 -2.58343,0.0982 z m -61.048785,-18.97358 -0.529166,-0.12226 -1.699747,-1.37777 -1.699746,-1.37777 -0.121614,-0.37085 -0.121613,-0.37085 0.630735,0.21518 0.630735,0.21519 2.231745,0.11035 2.231746,0.11034 1.4422,-0.45362 1.4422,-0.45363 0.974652,-0.97465 0.974651,-0.97466 0.378486,-1.30452 0.378486,-1.30453 -0.03317,-3.00028 -0.03317,-3.00029 1.310699,1.2805 1.3107,1.28049 0.442263,0.79375 0.442263,0.79375 v 3.30729 3.30729 l -0.55273,1.05833 -0.55273,1.05834 -1.110269,0.7843 -1.110268,0.78431 -3.364085,0.0543 -3.364084,0.0543 z m 20.205308,-0.18813 -0.961357,-0.35716 -1.61833,-1.27143 -1.61833,-1.27143 v -0.25641 -0.25642 l 0.595313,0.19903 0.595312,0.19903 2.606959,0.12206 2.606958,0.12206 0.290229,-0.29023 0.290229,-0.29023 h 0.589643 0.589642 l 0.349628,-0.34553 0.349628,-0.34554 0.404158,-0.15274 0.404157,-0.15274 0.786468,-1.41995 0.78647,-1.41996 v -3.37343 -3.37344 h 0.16005 0.16006 l 1.33881,1.41559 1.3388,1.41559 0.31272,1.04375 0.31272,1.04375 -0.0918,2.76618 -0.0918,2.76618 -0.6232,1.26562 -0.6232,1.26562 -1.09659,0.57574 -1.09659,0.57575 -3.042711,0.0789 -3.042708,0.0789 z m 20.143647,0.17406 -0.39687,-0.16793 -0.92605,-0.68455 -0.92604,-0.68454 -1.05833,-1.02196 -1.05833,-1.02196 0.66145,0.19497 0.66146,0.19498 2.46203,0.12352 2.46203,0.12353 0.84526,-0.31893 0.84527,-0.31893 0.86901,-0.43364 0.86901,-0.43365 0.6515,-0.94012 0.6515,-0.94012 0.29563,-1.57449 0.29562,-1.57449 -0.14516,-2.11667 -0.14517,-2.11667 -0.17823,-0.52916 -0.17824,-0.52917 1.72349,1.73128 1.72349,1.73127 0.31712,1.17768 0.31711,1.17767 -0.10182,2.6473 -0.10182,2.6473 -0.52111,1.05339 -0.5211,1.0534 -1.13383,0.78924 -1.13383,0.78925 -3.36409,0.0701 -3.36408,0.0701 z m 19.55612,-0.29449 -0.92869,-0.47347 -1.49374,-1.18018 -1.49374,-1.18017 -0.0148,-0.22675 -0.0148,-0.22674 0.46302,0.19476 0.46302,0.19477 2.84245,0.13204 2.84244,0.13203 0.33256,-0.26201 0.33255,-0.26201 0.72275,-0.1726 0.72275,-0.1726 0.9309,-0.81733 0.93089,-0.81734 v -0.36947 -0.36946 h 0.22806 0.22805 l 0.30111,-1.49934 0.30111,-1.49933 -0.006,-1.47723 -0.006,-1.47723 -0.23041,-0.99218 -0.23041,-0.99219 h 0.25951 0.25951 l 0.92977,0.85989 0.92976,0.8599 0.67826,1.05554 0.67825,1.05554 0.122,2.53349 0.122,2.5335 -0.43217,1.4866 -0.43217,1.4866 -0.67903,0.80699 -0.67904,0.80699 -1.35109,0.40123 -1.35108,0.40123 h -2.67416 -2.67415 z m -59.988585,-18.5754 -0.612677,-0.26151 -1.516003,-1.16654 -1.516003,-1.16653 -0.378845,-0.45648 -0.378844,-0.45648 1.161881,0.19629 1.161882,0.1963 2.493047,-0.0136 2.493046,-0.0136 1.232087,-0.61233 1.232087,-0.61234 0.721568,-1.05833 0.721568,-1.05833 0.293139,-1.85209 0.29314,-1.85208 -0.170112,-2.24896 -0.170112,-2.24896 1.204242,1.19063 1.204242,1.19062 0.598755,0.92605 0.598755,0.92604 -0.0047,3.30729 -0.0047,3.30729 -0.656728,1.32292 -0.656729,1.32291 -1.190625,0.65164 -1.190624,0.65163 -3.175,0.075 -3.175,0.075 z m 20.294901,-0.0872 -0.955274,-0.35535 -1.624413,-1.24996 -1.624413,-1.24996 v -0.18297 -0.18297 h 3.902604 3.902604 l 0.983861,-0.66146 0.983861,-0.66146 0.732634,-1.32292 0.73263,-1.32291 0.0664,-3.28224 0.0664,-3.28223 0.14019,-0.14019 0.14019,-0.14019 1.32638,1.43521 1.32637,1.43522 0.28188,0.94082 0.28188,0.94082 -0.0918,2.76618 -0.0918,2.76618 -0.66146,1.32292 -0.66146,1.32291 -1.19062,0.65731 -1.190626,0.65731 -2.910417,0.0726 -2.910416,0.0726 z m 20.799024,0.17404 -0.52917,-0.11524 -0.66146,-0.31081 -0.66145,-0.31081 -1.52136,-1.16979 -1.52135,-1.16979 -3.7e-4,-0.15941 -3.7e-4,-0.1594 3.26849,0.0869 3.26849,0.0869 1.04258,-0.28074 1.04258,-0.28073 0.82023,-0.80193 0.82022,-0.80192 0.49147,-0.98861 0.49147,-0.9886 -0.002,-3.48065 -0.002,-3.48065 0.39876,0.21856 0.39877,0.21856 0.97927,1.01313 0.97927,1.01313 0.40979,0.98369 0.40979,0.98369 v 2.37672 2.37673 l -0.29249,1.36385 -0.29249,1.36385 -0.98844,0.98844 -0.98845,0.98844 -1.21747,0.30657 -1.21748,0.30656 -2.19794,-0.0307 -2.19794,-0.0307 z m 19.71146,-0.0175 -0.66146,-0.12208 -1.5875,-1.14081 -1.5875,-1.14081 -0.40894,-0.49302 -0.40894,-0.49301 3.45719,0.10102 3.45718,0.10103 0.9205,-0.38566 0.92051,-0.38565 0.84122,-0.70937 0.84123,-0.70936 0.48169,-1.38125 0.48169,-1.38125 -0.0247,-3.11604 -0.0247,-3.11603 0.66791,0.60249 0.66791,0.60249 0.60897,0.66146 0.60898,0.66146 0.56692,1.14425 0.56692,1.14424 -0.11977,2.82451 -0.11977,2.8245 -0.54151,1.21501 -0.5415,1.215 -0.76096,0.54091 -0.76096,0.5409 -1.05833,0.29314 -1.05833,0.29313 -2.38125,-0.0345 -2.38125,-0.0346 z M 94.410316,153.02736 v -0.29403 l -0.727604,-0.01 -0.727605,-0.01 -1.965326,-1.52059 -1.965326,-1.5206 -0.116498,-0.34949 -0.116498,-0.34949 0.626616,0.2262 0.626616,0.2262 h 3.063635 3.063635 l 1.30199,-0.8042 1.30199,-0.80421 0.661458,-1.18017 0.661461,-1.18017 v -3.62924 -3.62924 l 1.26366,1.24483 1.26365,1.24483 0.52228,1.07888 0.52228,1.07889 v 2.51427 2.51428 l -0.39065,1.31548 -0.39066,1.31548 -0.73757,0.70664 -0.73758,0.70664 -1.05458,0.37014 -1.054583,0.37015 -1.5875,0.18329 -1.5875,0.18329 -0.859895,0.14774 -0.859896,0.14775 z m 19.497914,-0.0577 -0.69061,-0.1847 -0.87084,-0.60928 -0.87084,-0.60928 -1.12448,-0.92777 -1.12448,-0.92776 v -0.14241 -0.14241 h 3.71382 3.71382 l 0.18878,-0.26458 0.18879,-0.26459 0.79375,-0.40424 0.79375,-0.40425 0.79375,-1.44783 0.79375,-1.44784 v -3.49135 -3.49134 l 1.49523,1.51397 1.49523,1.51397 0.31877,1.18362 0.31877,1.18363 -0.13104,2.51354 -0.13104,2.51354 -0.30681,0.99391 -0.30681,0.99391 -0.5824,0.5499 -0.5824,0.54989 -0.74918,0.39238 -0.74919,0.39238 -2.84873,0.32484 -2.84874,0.32485 z m -40.168543,-0.21402 -1.223756,-0.17159 -1.508649,-1.18212 -1.50865,-1.18213 -0.376449,-0.29375 -0.376449,-0.29375 v -0.10313 -0.10312 l 3.63802,-0.001 3.638021,-0.001 1.049327,-0.62174 1.049327,-0.62175 0.345695,-0.43545 0.345695,-0.43544 0.581478,-1.05834 0.581478,-1.05833 -0.0089,-3.51329 -0.0089,-3.51329 1.294294,1.26433 1.294294,1.26433 0.389958,0.74123 0.389959,0.74123 0.155207,2.19931 0.155207,2.1993 -0.328243,1.73963 -0.328244,1.73962 -0.886507,1.03569 -0.886507,1.03568 -1.798569,0.43641 -1.798568,0.43641 -1.322917,-0.036 -1.322916,-0.036 z m 60.027743,0.007 -0.99185,-0.21002 -1.25711,-1.05807 -1.25711,-1.05807 -0.59532,-0.37019 -0.59531,-0.3702 v -0.31191 -0.3119 l 0.99219,0.2745 0.99219,0.27449 2.67063,-0.11827 2.67063,-0.11828 1.15903,-0.77841 1.15902,-0.77841 0.58227,-0.86402 0.58226,-0.86401 0.28443,-1.32627 0.28443,-1.32627 -0.006,-1.64062 -0.006,-1.64062 -0.22999,-0.99033 -0.22998,-0.99032 0.30244,0.18438 0.30244,0.18438 1.00314,0.92472 1.00314,0.92472 0.56005,0.90619 0.56006,0.90619 0.12347,2.56407 0.12347,2.56406 -0.45116,1.55192 -0.45115,1.55192 -0.85105,0.85105 -0.85105,0.85104 -1.04591,0.30148 -1.04592,0.30149 -2.24896,0.1098 -2.24896,0.1098 z"
         id="path1" /></g></g></svg>
